<?xml version="1.0" encoding="utf-8"?>
<!-- Generator: Adobe Illustrator 23.1.1, SVG Export Plug-In . SVG Version: 6.00 Build 0)  -->
<svg version="1.1" id="Layer_1" xmlns="http://www.w3.org/2000/svg" xmlns:xlink="http://www.w3.org/1999/xlink" x="0px" y="0px"
	 viewBox="0 0 259 211.01" style="enable-background:new 0 0 259 211.01;" xml:space="preserve">
<style type="text/css">
	.st0{fill:#88B165;}
	.st1{fill:#3A7D00;}
	.st2{fill:#5E952F;}
	.st3{fill:#FFFFFF;}
</style>
<g>
	<g>
		<path class="st0" d="M25.52,120.47c-3.35,1.55-3.36,4.1-0.02,5.67l99.77,46.96c3.34,1.57,8.81,1.59,12.16,0.04l98.05-45.35
			c3.35-1.55,3.36-4.1,0.02-5.67l-99.78-46.96c-3.34-1.57-8.81-1.59-12.16-0.04L25.52,120.47z"/>
	</g>
	<g>
		<g>
			<g>
				<path class="st1" d="M63.94,118.66l63.25,29.77c2.12,1,5.58,1.01,7.71,0.03l62.15-28.75c1.05-0.49,1.59-1.13,1.59-1.78h0v9
					c0,0,0,0,0,0c-0.01,0.65-0.54,1.29-1.59,1.78l-62.15,28.75c-2.12,0.98-5.59,0.97-7.71-0.03l-63.25-29.77
					c-1.04-0.49-1.55-1.12-1.57-1.76c0,0-0.01,0-0.01-0.01v-0.04v0v-8.99h0C62.36,117.51,62.89,118.16,63.94,118.66z"/>
			</g>
		</g>
		<g>
			<path class="st2" d="M63.95,115.06c-2.12,0.98-2.13,2.6-0.01,3.59l63.25,29.77c2.12,1,5.58,1.01,7.71,0.03l62.15-28.75
				c2.12-0.98,2.13-2.6,0.01-3.6l-63.25-29.77c-2.12-1-5.58-1.01-7.71-0.03L63.95,115.06z"/>
		</g>
	</g>
</g>
<g>
	<g>
		<path class="st3" d="M157.95,48.33c0-1.66-1.35-3.02-3.02-3.02h-49.11c-1.66,0-3.02,1.35-3.02,3.02v8.62h55.15V48.33z"/>
		<path class="st3" d="M188.66,53.48H76.59v9.04h9.21l-0.49,1.28c-2.92,7.61-4.4,15.61-4.4,23.81c0,10.46,2.36,20.49,7.03,29.77
			c1.19,2.37,3.57,3.99,6.22,4.28c-0.62-4.88-1.48-12.83-1.68-17.7c0,0,0,0.02,0.01,0.05c2.76,9.46,5.7,26.21,5.7,26.21
			c0.06,0.28,0.31,0.57,0.64,0.6c0,0,5.33,0.01,5.35,0.01c0.66-0.09,1.03-0.5,1.14-1c1.25-7.09,3.63-18.97,5.63-25.83
			c0.01-0.03,0.01-0.05,0.01-0.05c-0.23,5.17-1.07,12.61-1.7,17.76h14.41c-1.03-8.09-1.57-17.74-1.56-17.71
			c2.86,9.81,5.71,26.21,5.71,26.21c0,0.22,0.29,0.56,0.63,0.6c0,0,5.35,0.01,5.36,0.01c0.68-0.11,1.03-0.5,1.13-1
			c1.19-6.75,3.7-19.21,5.63-25.83c0.01-0.03,0.01-0.05,0.01-0.05c-0.24,5.4-1.04,12.47-1.69,17.76h14.41
			c-0.64-5.06-1.49-12.74-1.69-17.76c0,0,0,0.02,0.01,0.05c2.86,9.82,5.7,26.21,5.7,26.21c0.06,0.28,0.31,0.57,0.64,0.6
			c0,0,5.33,0.01,5.35,0.01c0.66-0.09,1.03-0.5,1.14-1c1.26-7.11,3.63-18.97,5.63-25.83c0.01-0.03,0.01-0.05,0.01-0.05
			c-0.23,5.18-1.07,12.63-1.7,17.76h1.81c3.05,0,5.77-1.66,7.12-4.33c4.66-9.28,7.03-19.3,7.03-29.77c0-8.2-1.49-16.2-4.4-23.81
			l-0.49-1.28h9.2V53.48z"/>
	</g>
</g>
<g>
	<g>
		<path class="st1" d="M157.95,48.33c0-1.66-1.35-3.02-3.02-3.02h-49.11c-1.66,0-3.02,1.35-3.02,3.02v3.27h55.15V48.33z"/>
		<path class="st1" d="M188.66,53.48H76.59v9.04h9.21l-0.49,1.28c-2.92,7.61-4.4,15.61-4.4,23.81c0,10.46,2.36,20.49,7.03,29.77
			c1.19,2.37,3.57,3.99,6.22,4.28c-0.62-4.88-1.48-12.83-1.68-17.7c0,0,0,0.02,0.01,0.05c2.76,9.46,5.7,26.21,5.7,26.21
			c0.06,0.28,0.31,0.57,0.64,0.6c0,0,5.33,0.01,5.35,0.01c0.66-0.09,1.03-0.5,1.14-1c1.25-7.09,3.63-18.97,5.63-25.83
			c0.01-0.03,0.01-0.05,0.01-0.05c-0.23,5.17-1.07,12.61-1.7,17.76h14.41c-1.03-8.09-1.57-17.74-1.56-17.71
			c2.86,9.81,5.71,26.21,5.71,26.21c0,0.22,0.29,0.56,0.63,0.6c0,0,5.35,0.01,5.36,0.01c0.68-0.11,1.03-0.5,1.13-1
			c1.19-6.75,3.7-19.21,5.63-25.83c0.01-0.03,0.01-0.05,0.01-0.05c-0.24,5.4-1.04,12.47-1.69,17.76h14.41
			c-0.64-5.06-1.49-12.74-1.69-17.76c0,0,0,0.02,0.01,0.05c2.86,9.82,5.7,26.21,5.7,26.21c0.06,0.28,0.31,0.57,0.64,0.6
			c0,0,5.33,0.01,5.35,0.01c0.66-0.09,1.03-0.5,1.14-1c1.26-7.11,3.63-18.97,5.63-25.83c0.01-0.03,0.01-0.05,0.01-0.05
			c-0.23,5.18-1.07,12.63-1.7,17.76h1.81c3.05,0,5.77-1.66,7.12-4.33c4.66-9.28,7.03-19.3,7.03-29.77c0-8.2-1.49-16.2-4.4-23.81
			l-0.49-1.28h9.2V53.48z"/>
	</g>
</g>
</svg>
