<?xml version="1.0" encoding="utf-8"?>
<!-- Generator: Adobe Illustrator 23.1.1, SVG Export Plug-In . SVG Version: 6.00 Build 0)  -->
<svg version="1.1" id="Layer_1" xmlns="http://www.w3.org/2000/svg" xmlns:xlink="http://www.w3.org/1999/xlink" x="0px" y="0px"
	 viewBox="0 0 259 211.01" style="enable-background:new 0 0 259 211.01;" xml:space="preserve">
<style type="text/css">
	.st0{fill:#64D090;}
	.st1{fill:#1E924D;}
	.st2{fill:#22BE62;}
	.st3{fill:#FFFFFF;}
</style>
<g>
	<g>
		<g>
			<path class="st0" d="M28.27,150.31c-3.36,1.55-3.37,4.11-0.02,5.69l100.09,47.11c3.35,1.58,8.84,1.6,12.2,0.04l98.36-45.5
				c3.36-1.55,3.37-4.11,0.02-5.69l-100.1-47.11c-3.35-1.58-8.84-1.59-12.19-0.04L28.27,150.31z"/>
		</g>
		<g>
			<g>
				<g>
					<path class="st1" d="M66.82,148.5l63.45,29.86c2.12,1,5.6,1.01,7.73,0.03l62.35-28.84c1.06-0.49,1.59-1.14,1.6-1.79h0v9.03
						c0,0,0,0,0,0c-0.01,0.65-0.54,1.3-1.6,1.79l-62.35,28.84c-2.13,0.99-5.61,0.97-7.73-0.03l-63.45-29.86
						c-1.04-0.49-1.56-1.13-1.58-1.77c0,0-0.01,0-0.01-0.01v-0.04v0v-9.02h0C65.23,147.34,65.76,148,66.82,148.5z"/>
				</g>
			</g>
			<g>
				<path class="st2" d="M66.83,144.89c-2.13,0.98-2.13,2.61-0.01,3.61l63.45,29.86c2.12,1,5.6,1.01,7.73,0.03l62.35-28.84
					c2.13-0.99,2.13-2.61,0.01-3.61l-63.45-29.86c-2.12-1-5.6-1.01-7.73-0.03L66.83,144.89z"/>
			</g>
		</g>
	</g>
	<g>
		<g>
			<g>
				<path class="st2" d="M103.69,152.92c-5.49,0-9.96-4.1-9.96-9.14V60.36h82.68v83.42c0,5.04-4.47,9.14-9.96,9.14H103.69z"/>
			</g>
			<g>
				<path class="st3" d="M174.87,61.78v82c0,4.26-3.77,7.72-8.41,7.72h-62.77c-4.64,0-8.41-3.46-8.41-7.72v-82H174.87L174.87,61.78z
					 M177.96,58.94H92.19v84.84c0,5.83,5.15,10.56,11.5,10.56h62.77c6.35,0,11.5-4.73,11.5-10.56V58.94L177.96,58.94z"/>
			</g>
		</g>
		<g>
			<path class="st2" d="M166.46,155.76h-62.77c-7.19,0-13.05-5.38-13.05-11.98V45.68c0-0.78,0.69-1.42,1.55-1.42h85.77
				c0.85,0,1.55,0.64,1.55,1.42v98.09C179.51,150.38,173.66,155.76,166.46,155.76z M93.74,47.1v96.67c0,5.04,4.47,9.14,9.96,9.14
				h62.77c5.49,0,9.96-4.1,9.96-9.14V47.1H93.74z"/>
		</g>
		<g>
			<g>
				<path class="st3" d="M108.97,153.08c-0.42,0-0.85-0.16-1.15-0.47c-1.36-1.39-1.28-2.65-0.97-3.45
					c1.55-4.04,12.8-5.95,31.03-8.72c7.19-1.1,14.63-2.23,20.1-3.51c8-1.87,8.16-3.25,8.17-3.26c0.18-3.6-18.33-5.75-30.59-7.17
					c-18.2-2.11-29.43-3.69-31.95-7.79c-0.66-1.08-0.7-2.28-0.12-3.48c1.99-4.11,11.23-5.98,26.2-8.57
					c10.01-1.73,22.47-3.89,24.31-7c0.23-0.39,0.24-0.76,0.03-1.24c-1.71-3.81-10.12-5.69-18.25-7.51
					c-10.23-2.29-19.9-4.45-20.19-10.9c-0.3-6.7,10.96-9.27,22.89-11.99c8.25-1.88,16.79-3.83,19.92-6.95
					c0.58-0.58,1.56-0.61,2.19-0.08c0.63,0.53,0.67,1.43,0.09,2.01c-3.76,3.75-12.35,5.71-21.45,7.79
					c-9.72,2.22-20.75,4.74-20.55,9.12c0.2,4.31,9.16,6.31,17.83,8.25c9.29,2.08,18.07,4.04,20.38,9.19
					c0.57,1.26,0.51,2.53-0.17,3.68c-2.54,4.3-13.62,6.22-26.46,8.44c-10.01,1.73-22.48,3.89-23.95,6.93
					c-0.22,0.46-0.14,0.72-0.01,0.93c1.94,3.15,17.3,4.94,29.64,6.37c20.84,2.42,33.59,4.2,33.29,10.12
					c-0.23,4.55-11.3,6.46-30.85,9.44c-10.99,1.67-27.6,4.2-28.62,6.86c-0.06,0.17,0.25,0.52,0.35,0.62
					c0.57,0.58,0.52,1.48-0.12,2.01C109.71,152.96,109.34,153.08,108.97,153.08z"/>
			</g>
		</g>
		<g>
			<path class="st3" d="M134.06,150.71h-0.93c-0.83,0-1.51-0.62-1.51-1.38V14.71c0-0.76,0.68-1.38,1.51-1.38h0.93
				c0.83,0,1.51,0.62,1.51,1.38v134.62C135.56,150.09,134.89,150.71,134.06,150.71z"/>
		</g>
		<g>
			<g>
				<path class="st3" d="M120.78,145.05c-1.89,0-3.43-1.41-3.43-3.15V82.44c0-1.74,1.54-3.15,3.43-3.15h25.63
					c1.89,0,3.43,1.41,3.43,3.15v59.46c0,1.74-1.54,3.15-3.43,3.15H120.78z M139.91,84.84c-1.23,0-2.23,0.92-2.23,2.05v50.57
					c0,1.13,1,2.05,2.23,2.05h4.45c1.23,0,2.23-0.92,2.23-2.05V86.89c0-1.13-1-2.05-2.23-2.05H139.91z M123.15,84.84
					c-1.23,0-2.23,0.92-2.23,2.05v50.57c0,1.13,1,2.05,2.23,2.05h4.45c1.23,0,2.23-0.92,2.23-2.05V86.89c0-1.13-1-2.05-2.23-2.05
					H123.15z"/>
				<path class="st2" d="M146.41,79.77c1.61,0,2.91,1.2,2.91,2.68v59.46c0,1.47-1.31,2.68-2.91,2.68h-25.63
					c-1.61,0-2.91-1.2-2.91-2.68V82.44c0-1.48,1.31-2.68,2.91-2.68H146.41L146.41,79.77z M139.91,139.98h4.45
					c1.52,0,2.75-1.13,2.75-2.52V86.89c0-1.39-1.23-2.52-2.75-2.52h-4.45c-1.52,0-2.75,1.13-2.75,2.52v50.57
					C137.16,138.85,138.39,139.98,139.91,139.98L139.91,139.98z M123.15,139.98h4.45c1.52,0,2.75-1.13,2.75-2.52V86.89
					c0-1.39-1.23-2.52-2.75-2.52h-4.45c-1.52,0-2.75,1.13-2.75,2.52v50.57C120.4,138.85,121.63,139.98,123.15,139.98L123.15,139.98z
					 M146.41,78.82h-25.63c-2.17,0-3.94,1.63-3.94,3.62v59.46c0,1.99,1.77,3.62,3.94,3.62h25.63c2.17,0,3.94-1.63,3.94-3.62V82.44
					C150.35,80.45,148.58,78.82,146.41,78.82L146.41,78.82z M139.91,139.03c-0.94,0-1.72-0.71-1.72-1.58V86.89
					c0-0.87,0.77-1.58,1.72-1.58h4.45c0.94,0,1.72,0.71,1.72,1.58v50.57c0,0.87-0.77,1.58-1.72,1.58H139.91L139.91,139.03z
					 M123.15,139.03c-0.94,0-1.72-0.71-1.72-1.58V86.89c0-0.87,0.77-1.58,1.72-1.58h4.45c0.94,0,1.72,0.71,1.72,1.58v50.57
					c0,0.87-0.77,1.58-1.72,1.58H123.15L123.15,139.03z"/>
			</g>
		</g>
		<g>
			<g>
				<rect x="131.62" y="47.1" class="st2" width="3.94" height="10.42"/>
			</g>
			<g>
				<path class="st2" d="M135.56,44.26V14.71c0-0.76-0.68-1.38-1.51-1.38h-0.93c-0.83,0-1.51,0.62-1.51,1.38v29.55H135.56z"/>
			</g>
		</g>
	</g>
</g>
</svg>
