<?xml version="1.0" encoding="utf-8"?>
<!-- Generator: Adobe Illustrator 23.1.1, SVG Export Plug-In . SVG Version: 6.00 Build 0)  -->
<svg version="1.1" id="Layer_1" xmlns="http://www.w3.org/2000/svg" xmlns:xlink="http://www.w3.org/1999/xlink" x="0px" y="0px"
	 viewBox="0 0 259 211.01" style="enable-background:new 0 0 259 211.01;" xml:space="preserve">
<style type="text/css">
	.st0{fill:#36BEF9;}
	.st1{fill:#007CB6;}
	.st2{fill:#00A3F4;}
	.st3{fill:#FFFFFF;}
</style>
<g>
	<g>
		<g>
			<path class="st0" d="M28.34,121.37c-3.35,1.55-3.36,4.11-0.02,5.68l99.94,47.04c3.35,1.57,8.82,1.59,12.18,0.04l98.22-45.43
				c3.35-1.55,3.36-4.1,0.02-5.68l-99.95-47.04c-3.34-1.57-8.82-1.59-12.18-0.04L28.34,121.37z"/>
		</g>
		<g>
			<g>
				<g>
					<path class="st1" d="M66.83,119.55l63.35,29.82c2.12,1,5.59,1.01,7.72,0.03l62.26-28.8c1.06-0.49,1.59-1.14,1.59-1.79h0v9.01
						c0,0,0,0,0,0c-0.01,0.65-0.54,1.3-1.6,1.79l-62.26,28.79c-2.13,0.98-5.6,0.97-7.72-0.03l-63.35-29.82
						c-1.04-0.49-1.56-1.12-1.58-1.76c0,0-0.01,0-0.01-0.01v-0.04v0v-9.01h0C65.25,118.4,65.77,119.05,66.83,119.55z"/>
				</g>
			</g>
			<g>
				<path class="st2" d="M66.84,115.95c-2.13,0.98-2.13,2.6-0.01,3.6l63.35,29.82c2.12,1,5.59,1.01,7.72,0.03l62.26-28.8
					c2.12-0.98,2.13-2.6,0.01-3.6l-63.36-29.82c-2.12-1-5.59-1.01-7.72-0.03L66.84,115.95z"/>
			</g>
		</g>
	</g>
	<g>
		<path class="st3" d="M204.39,83.84V73.83c-6.06,0-11.61,0-17.04,0l2.05-11.19h7.77v-4.85c0-1.82-1.48-3.31-3.3-3.31H190
			l-14.07-14.06c-1.36-1.35-3.14-2.1-5.06-2.1H99.01c-1.91,0-3.7,0.75-5.06,2.1L79.9,54.48h-3.86c-1.82,0-3.3,1.49-3.3,3.31v4.85
			h7.77l1.98,11.19c-4.48,0-9.79,0-22.03,0v10.01c8.57,0,16.22,0,23.8,0l0.51,2.88h-0.02l6.64,37.71c0.61,3.42,3.57,5.9,7.05,5.9
			h73.02c3.47,0,6.43-2.48,7.04-5.9l6.65-37.71h-0.16l0.53-2.88C189.66,83.84,195.39,83.84,204.39,83.84z"/>
	</g>
	<g>
		<path class="st2" d="M81.97,70.95h7.25L88,64.09h43.62v42.18h6.66V64.09h43.61l-1.21,6.85h7.26l1.46-8.31h7.77v-4.85
			c0-1.82-1.48-3.31-3.3-3.31H190l-14.06-14.06c-1.36-1.35-3.14-2.1-5.06-2.1H99.01c-1.91,0-3.7,0.75-5.06,2.1L79.9,54.48h-3.86
			c-1.82,0-3.3,1.49-3.3,3.31v4.85h7.77L81.97,70.95z"/>
		<path class="st2" d="M148.97,90.97v-4.25h-8.77v21.48H129.7V86.72H94.97l5.32,30.44h69.31l5.41-30.44h-0.05h-10.23v4.25h6.51v0.96
			h-6.51v4.09h2.6v0.96h-2.6v11.7h-15.77v-11.7h-2.46v-0.96h2.46v-4.09h-5.15v-0.96H148.97z M123.41,96.98h-20.77v-0.96h20.77V96.98
			z M126.09,91.93H98.73v-0.96h27.36V91.93z"/>
		<path class="st2" d="M177.9,86.72l-4.87,27.64l-1.01,5.68H97.87l-5.87-33.32h-7.24l6.64,37.71c0.61,3.42,3.57,5.9,7.05,5.9h73.02
			c3.47,0,6.43-2.48,7.04-5.9l6.65-37.71h-7.2H177.9z"/>
		<path class="st2" d="M162.67,73.83c-5.78,0-10.82,4.66-10.82,10.82c0,1.79,0,18.69,0,21.15h10c0-8.13,0-14.19,0-21.96
			c18.65,0,12.7,0,42.53,0V73.83C189.33,73.83,177.44,73.83,162.67,73.83z"/>
		<path class="st2" d="M111.59,83.84V73.83c-31.96,0-22.19,0-51.13,0v10.01C78.94,83.84,93.12,83.84,111.59,83.84z"/>
	</g>
</g>
</svg>
