<?xml version="1.0" encoding="utf-8"?>
<!-- Generator: Adobe Illustrator 23.1.1, SVG Export Plug-In . SVG Version: 6.00 Build 0)  -->
<svg version="1.1" id="Layer_1" xmlns="http://www.w3.org/2000/svg" xmlns:xlink="http://www.w3.org/1999/xlink" x="0px" y="0px"
	 viewBox="0 0 259 211.01" style="enable-background:new 0 0 259 211.01;" xml:space="preserve">
<style type="text/css">
	.st0{fill:#B87D9B;}
	.st1{fill:#8F3262;}
	.st2{fill:#A05079;}
	.st3{fill:#FFFFFF;}
</style>
<g>
	<path class="st0" d="M28.52,127.8c-3.35,1.55-3.36,4.1-0.02,5.67l99.78,46.96c3.34,1.57,8.81,1.59,12.16,0.04l98.05-45.35
		c3.35-1.55,3.36-4.1,0.02-5.67l-99.78-46.96c-3.34-1.57-8.81-1.59-12.16-0.04L28.52,127.8z"/>
</g>
<g>
	<g>
		<g>
			<path class="st1" d="M66.94,125.98l63.25,29.77c2.12,1,5.58,1.01,7.71,0.03l62.15-28.75c1.05-0.49,1.59-1.13,1.59-1.78h0v9
				c0,0,0,0,0,0c-0.01,0.65-0.54,1.29-1.59,1.78l-62.15,28.75c-2.12,0.98-5.59,0.97-7.71-0.03l-63.25-29.77
				c-1.04-0.49-1.55-1.12-1.57-1.76c0,0-0.01,0-0.01-0.01v-0.04v0v-8.99h0C65.36,124.84,65.89,125.49,66.94,125.98z"/>
		</g>
	</g>
	<g>
		<path class="st2" d="M66.95,122.39c-2.12,0.98-2.13,2.6-0.01,3.59l63.25,29.77c2.12,1,5.58,1.01,7.71,0.03l62.15-28.75
			c2.12-0.98,2.13-2.6,0.01-3.6l-63.25-29.77c-2.12-1-5.58-1.01-7.71-0.03L66.95,122.39z"/>
	</g>
</g>
<g>
	<path class="st3" d="M196.74,50.18v-16.2h-80.2v16.2H78.41c-1.53,0-2.77,1.24-2.77,2.77v54.55c0,1.43,0.83,2.74,2.13,3.35
		l42.88,19.99v6.35c0,1.53,1.24,2.77,2.77,2.77h25.54c1.53,0,2.77-1.24,2.77-2.77v-6.35l42.87-20c1.3-0.6,2.13-1.91,2.13-3.34
		L196.74,50.18L196.74,50.18z"/>
	<path class="st1" d="M196.74,50.18v-16.2h-80.2v16.2H78.41c-1.53,0-2.77,1.24-2.77,2.77v54.55c0,1.43,0.83,2.74,2.13,3.35
		l42.88,19.99v6.35c0,1.53,1.24,2.77,2.77,2.77h25.54c1.53,0,2.77-1.24,2.77-2.77v-6.35l42.87-20c1.3-0.6,2.13-1.91,2.13-3.34
		L196.74,50.18L196.74,50.18z M192.12,50.18h-10.5V38.6h10.5V50.18z M136.28,50.18V38.6h10.5v11.58H136.28z M151.39,38.6h10.5v11.58
		h-10.5V38.6z M166.51,38.6H177v11.58h-10.5V38.6z M121.16,38.6h10.5v11.58h-10.5V38.6z M191.06,106.23l-45,20.99v7.06h-19.72v-7.06
		l-45.01-20.99V55.86h52.13c0,6.88,0,4.58,0,11.58h-29.89c-2.34,0-4.58,0.92-6.23,2.58l-4.22,4.22h-9.02v30.22l45.01,20.99v6.05
		h4.35V85.16h-9.9V73.91c-0.19,0-15.55,0-15.72-0.01c-1.6-0.15-3.73-0.31-9.22-0.91c4.19-0.5,8.25-0.83,9.22-0.92
		c0.02,0,56.58-0.01,56.73,0.01c1.83,0.17,3.71,0.31,9.21,0.91c-4.15,0.43-1.48,0.19-9.21,0.91c-0.28,0.03-15.44,0.02-15.72,0.02
		v11.25h-9.91v46.34h4.36v-6.05l45-20.99V74.24h-9.02l-4.22-4.22c-1.65-1.65-3.89-2.58-6.23-2.58h-29.9c0-4.24,0-7.14,0-11.58h52.13
		V106.23z"/>
</g>
</svg>
