<?xml version="1.0" encoding="utf-8"?>
<!-- Generator: Adobe Illustrator 23.1.1, SVG Export Plug-In . SVG Version: 6.00 Build 0)  -->
<svg version="1.1" id="Layer_1" xmlns="http://www.w3.org/2000/svg" xmlns:xlink="http://www.w3.org/1999/xlink" x="0px" y="0px"
	 viewBox="0 0 259 211.01" style="enable-background:new 0 0 259 211.01;" xml:space="preserve">
<style type="text/css">
	.st0{fill:#FAAD6D;}
	.st1{fill:#C4612F;}
	.st2{fill:#F98940;}
	.st3{fill:#FFFFFF;}
	.st4{fill:#F98940;stroke:#FFFFFF;stroke-width:2.5;stroke-linecap:round;stroke-linejoin:round;stroke-miterlimit:10;}
</style>
<g>
	<g>
		<g>
			<path class="st0" d="M29.52,144.82c-3.35,1.55-3.36,4.1-0.02,5.67l99.78,46.96c3.34,1.57,8.81,1.59,12.16,0.04l98.05-45.35
				c3.35-1.55,3.36-4.1,0.02-5.67l-99.78-46.96c-3.34-1.57-8.81-1.59-12.16-0.04L29.52,144.82z"/>
		</g>
		<g>
			<g>
				<g>
					<path class="st1" d="M67.94,143.01l63.25,29.77c2.12,1,5.58,1.01,7.71,0.03l62.15-28.75c1.05-0.49,1.59-1.13,1.59-1.78h0v9
						c0,0,0,0,0,0c-0.01,0.65-0.54,1.29-1.59,1.78l-62.15,28.75c-2.12,0.98-5.59,0.97-7.71-0.03l-63.25-29.77
						c-1.04-0.49-1.55-1.12-1.57-1.76c0,0-0.01,0-0.01-0.01v-0.04v0v-8.99h0C66.36,141.86,66.89,142.51,67.94,143.01z"/>
				</g>
			</g>
			<g>
				<path class="st2" d="M67.95,139.42c-2.12,0.98-2.13,2.6-0.01,3.59l63.25,29.77c2.12,1,5.58,1.01,7.71,0.03l62.15-28.75
					c2.12-0.98,2.13-2.6,0.01-3.6l-63.25-29.77c-2.12-1-5.58-1.01-7.71-0.03L67.95,139.42z"/>
			</g>
		</g>
	</g>
	<g>
		<path class="st3" d="M179.67,138.75v-29.36c0.01-0.01,0.01-0.03,0.01-0.03V74.09c0-3.39-1.41-6.64-3.88-8.94
			c-5.46-5.08-12.26-8.97-20.15-10.99v-2.71h3.12v-3.64c0-0.49-0.4-0.9-0.89-0.9h-27.44c-0.49,0-0.89,0.41-0.89,0.9v3.64h3.12v2.71
			c-7.32,1.88-14.24,5.5-20.15,10.99c-2.48,2.3-3.88,5.55-3.88,8.94v25.14c2.42,1.1,4.63,2.68,6.47,4.64
			c3.57,3.79,5.54,8.63,5.65,13.78c0.04,2.1-0.21,4.16-0.82,6.24c7.05,4.34,15.42,6.82,24.23,6.82c10.3,0,20.33-3.38,28.62-9.88
			v17.91h-6.19v4.32c0.22,0,19.26,0,19.28,0v-4.32H179.67z"/>
		<path class="st3" d="M96.05,80.41h-6.26V34.32h50.31v10h8.1V34.18c0-4.4-3.57-7.98-7.98-7.98H89.66c-4.39,0-7.98,3.57-7.98,7.98
			v46.23h-6.26v4.56c4.06,0,16.17,0,20.63,0V80.41z"/>
		<path class="st3" d="M115.52,135.52c-4.91,0-3.37,0-8.29,0v-0.68c6.43-2.8,11.12-9.43,10.93-17.14
			c-0.24-9.88-8.33-17.8-18.24-17.8c-3.75,0-7.23,1.13-10.13,3.07V90.39h6.26v-4.56c-3.87,0-13.21,0-20.63,0v4.56h6.26v27.75
			c0,7.48,4.51,13.91,10.94,16.73v0.66h-8.48c-1.36,0-2.47,1.1-2.47,2.47v5.08c36.14,0,0.14,0,36.49,0v-5.08
			C118.17,136.77,117.28,135.52,115.52,135.52z"/>
	</g>
	<g>
		<path class="st4" d="M185.87,138.75h-6.2v-29.36c0.01-0.01,0.01-0.03,0.01-0.03V74.09c0-3.39-1.41-6.64-3.88-8.94
			c-5.46-5.08-12.26-8.97-20.15-10.99v-2.71h3.12v-3.64c0-0.49-0.4-0.9-0.89-0.9h-27.44c-0.49,0-0.89,0.41-0.89,0.9v3.64h3.12v2.71
			c-7.32,1.88-14.24,5.5-20.15,10.99c-2.48,2.3-3.88,5.55-3.88,8.94v25.14c2.42,1.1,4.63,2.68,6.47,4.64
			c3.57,3.79,5.54,8.63,5.65,13.78c0.04,2.1-0.21,4.16-0.82,6.24c7.05,4.34,15.42,6.82,24.23,6.82c10.3,0,20.33-3.38,28.62-9.88
			v17.91h-6.19v4.32c0.22,0,19.26,0,19.28,0V138.75z M152.58,66.19h-8.22v3.5h4.37v0.86h-4.37v4.35h4.37v0.86h-4.37v4.36h4.37v0.86
			h-4.37v4.35h4.37v0.86h-4.37v3.5h8.22v2.59h-8.22v3.49h4.37v0.86h-4.37v4.36h4.37v0.86h-4.37v4.35h4.37v0.86h-4.37v4.36h4.37v0.86
			h-4.37v3.49h8.22v2.59h-16.42V63.6h16.42V66.19z"/>
		<path class="st4" d="M96.05,84.97v-4.56h-6.26V34.32h50.31v10h8.11V34.18c0-4.4-3.57-7.98-7.98-7.98H89.66
			c-4.39,0-7.98,3.57-7.98,7.98v46.23h-6.26v4.56C79.49,84.97,91.59,84.97,96.05,84.97z"/>
		<path class="st4" d="M118.17,117.7c-0.24-9.88-8.33-17.8-18.24-17.8c-3.75,0-7.23,1.13-10.13,3.07V90.39h6.26v-4.56
			c-3.87,0-13.21,0-20.63,0v4.56h6.26v27.75c0,7.48,4.51,13.91,10.94,16.73v0.66h-8.48c-1.36,0-2.47,1.1-2.47,2.47v5.08
			c36.14,0,0.14,0,36.49,0v-5.08c0-1.22-0.9-2.47-2.65-2.47c-4.91,0-3.37,0-8.29,0v-0.68C113.66,132.03,118.36,125.41,118.17,117.7z
			 M88.46,118.14c0-2.36,0.71-4.63,2.05-6.55l4.51,3.13c-0.71,1.01-1.08,2.19-1.08,3.42l-5.48,0.02V118.14z M111.39,118.14
			c0,2.37-0.72,4.64-2.07,6.58l-0.68-0.47l-3.81-2.68c0.71-1,1.08-2.19,1.08-3.43c3.33-0.02,2.19-0.01,5.48-0.03V118.14z
			 M108.04,126.24c-1.67,1.67-3.79,2.78-6.11,3.19l-0.96-5.39c1.21-0.22,2.31-0.79,3.19-1.67L108.04,126.24z M105.81,117.07
			c-0.22-1.21-0.79-2.3-1.67-3.18l3.87-3.89c1.51,1.45,2.76,3.62,3.21,6.1C108.05,116.67,109.28,116.45,105.81,117.07z
			 M103.34,113.22c-1-0.7-2.18-1.06-3.41-1.06l-0.03-5.49h0.03c2.36,0,4.62,0.71,6.55,2.05L103.34,113.22z M100.59,129.52
			l-0.33,0.09h-0.34c-2.37,0-4.64-0.72-6.57-2.07l3.15-4.49c0.98,0.68,2.13,1.05,3.34,1.07h0.09
			C99.94,127.49,99.79,126.26,100.59,129.52z M97.91,106.85l0.96,5.39c-1.21,0.22-2.3,0.79-3.18,1.67l-3.88-3.87
			C93.47,108.37,95.59,107.27,97.91,106.85z M94.04,119.19c0.22,1.21,0.79,2.31,1.67,3.19l-3.88,3.88
			c-1.67-1.67-2.78-3.79-3.19-6.11L94.04,119.19z"/>
		<rect x="138.75" y="66.19" class="st4" width="3.02" height="49.59"/>
	</g>
</g>
</svg>
