<?xml version="1.0" encoding="utf-8"?>
<!-- Generator: Adobe Illustrator 23.1.1, SVG Export Plug-In . SVG Version: 6.00 Build 0)  -->
<svg version="1.1" id="Layer_1" xmlns="http://www.w3.org/2000/svg" xmlns:xlink="http://www.w3.org/1999/xlink" x="0px" y="0px"
	 viewBox="0 0 259 211.01" style="enable-background:new 0 0 259 211.01;" xml:space="preserve">
<style type="text/css">
	.st0{fill:#97EAE4;}
	.st1{fill:#17A5D5;}
	.st2{fill:#55DCD2;}
	.st3{fill:#FFFFFF;}
</style>
<g>
	<g>
		<path class="st0" d="M28.16,127.68c-3.35,1.55-3.36,4.1-0.02,5.67l99.77,46.96c3.34,1.57,8.81,1.59,12.16,0.04L238.13,135
			c3.35-1.55,3.36-4.1,0.02-5.67l-99.78-46.96c-3.34-1.57-8.81-1.59-12.16-0.04L28.16,127.68z"/>
	</g>
	<g>
		<g>
			<g>
				<path class="st1" d="M66.58,125.86l63.25,29.77c2.12,1,5.58,1.01,7.71,0.03l62.15-28.75c1.05-0.49,1.59-1.13,1.59-1.78h0v9
					c0,0,0,0,0,0c-0.01,0.65-0.54,1.29-1.59,1.78l-62.15,28.75c-2.12,0.98-5.59,0.97-7.71-0.03l-63.25-29.77
					c-1.04-0.49-1.55-1.12-1.57-1.76c0,0-0.01,0-0.01-0.01v-0.04v0v-8.99h0C65,124.72,65.53,125.37,66.58,125.86z"/>
			</g>
		</g>
		<g>
			<path class="st2" d="M66.59,122.27c-2.12,0.98-2.13,2.6-0.01,3.59l63.25,29.77c2.12,1,5.58,1.01,7.71,0.03l62.15-28.75
				c2.12-0.98,2.13-2.6,0.01-3.6l-63.25-29.77c-2.12-1-5.58-1.01-7.71-0.03L66.59,122.27z"/>
		</g>
	</g>
</g>
<g>
	<circle class="st3" cx="133.99" cy="86.35" r="40.51"/>
	<g>
		<path class="st1" d="M96.79,54.88v-8.36H86.53v8.99h9.73C96.44,55.3,96.61,55.09,96.79,54.88z"/>
		<path class="st1" d="M171.19,46.52v8.36c0.18,0.21,0.35,0.42,0.53,0.63h9.73v-8.99H171.19z"/>
		<polygon class="st1" points="143.43,34.7 124.54,34.7 118.94,40.29 149.03,40.29 		"/>
		<path class="st1" d="M168.63,55.36c0-9.48,0-6.49,0-10.72c0-1.46-1.18-2.64-2.63-2.64h-64.02c-1.45,0-2.64,1.18-2.64,2.64v1.88
			v8.84c0,0.31-0.12,0.62-0.31,0.84c-7.24,8.38-11.23,19.09-11.23,30.16c0,8.45,2.3,16.73,6.66,23.92c0.09,0.14,0.14,0.3,0.17,0.46
			l2.7,16.8c0.59,3.68,3.52,5,5.85,5c2.92,0,5.15-1.61,5.9-5.25c0.14-0.86,1.11-1.33,1.89-0.89c4.99,2.87,10.41,4.76,16.11,5.62
			c0.55,0.09,0.97,0.5,1.07,1.04c0.64,3.58,3.54,4.84,5.83,4.84c2.79,0,5.27-1.7,5.83-4.85c0.09-0.54,0.53-0.96,1.07-1.04
			c5.71-0.85,11.14-2.75,16.11-5.62c0.77-0.45,1.76,0.01,1.9,0.9c0.63,3.54,2.96,5.25,5.89,5.25c2.34,0,5.26-1.31,5.85-5l2.7-16.8
			c0.03-0.16,0.09-0.32,0.16-0.46c4.36-7.2,6.67-15.47,6.67-23.92c0-11.07-3.99-21.78-11.23-30.16
			C168.75,55.98,168.63,55.67,168.63,55.36z M172.45,86.35c0,21.2-17.25,38.46-38.47,38.46c-21.88,0-39.26-18.34-38.42-39.76
			c0.69-21.05,18.14-37.16,38.42-37.16C154.78,47.89,172.45,64.63,172.45,86.35z"/>
		<path class="st1" d="M139.52,106.38h-11.06V68.05H103.1h-0.03c-2.81,4.73-4.76,10.63-4.96,17.25
			c-0.51,20.9,16.25,36.96,35.87,36.96c19.87,0,35.91-16.18,35.91-35.9c0-6.26-1.61-12.64-4.98-18.3h-0.03h-25.37V106.38z
			 M122.65,78.49h-13.23v-0.85h13.23V78.49z M126.99,73.28h-21.89v-0.85h21.89V73.28z M158.43,78.49h-13.22v-0.85h13.22V78.49z
			 M140.86,72.42h21.9v0.85h-21.9V72.42z"/>
		<path class="st1" d="M131.01,65.49v1.28v1.28v35.77h5.94V68.05v-1.28v-1.28v-9.98h15.43c-5.59-3.17-11.44-5.07-18.41-5.07
			c-6.94,0-12.65,1.82-18.38,5.07h15.41V65.49z"/>
	</g>
</g>
</svg>
