<?xml version="1.0" encoding="utf-8"?>
<!-- Generator: Adobe Illustrator 23.1.1, SVG Export Plug-In . SVG Version: 6.00 Build 0)  -->
<svg version="1.1" id="Layer_1" xmlns="http://www.w3.org/2000/svg" xmlns:xlink="http://www.w3.org/1999/xlink" x="0px" y="0px"
	 viewBox="0 0 259 211.01" style="enable-background:new 0 0 259 211.01;" xml:space="preserve">
<style type="text/css">
	.st0{fill:#FDCBD7;}
	.st1{fill:#F989A4;}
	.st2{fill:#FBACBF;}
	.st3{fill:#FFFFFF;}
</style>
<g>
	<path class="st0" d="M22.52,125.42c-3.35,1.55-3.36,4.1-0.02,5.67l99.78,46.96c3.34,1.57,8.81,1.59,12.16,0.04l98.05-45.35
		c3.35-1.55,3.36-4.1,0.02-5.67l-99.78-46.96c-3.34-1.57-8.81-1.59-12.16-0.04L22.52,125.42z"/>
</g>
<g>
	<g>
		<g>
			<path class="st1" d="M60.94,123.6l63.25,29.77c2.12,1,5.58,1.01,7.7,0.03l62.15-28.75c1.05-0.49,1.59-1.13,1.59-1.78h0v9
				c0,0,0,0,0,0c-0.01,0.65-0.54,1.29-1.59,1.78l-62.15,28.75c-2.12,0.98-5.59,0.97-7.7-0.03L60.94,132.6
				c-1.04-0.49-1.55-1.12-1.57-1.76c0,0-0.01,0-0.01-0.01v-0.04v0v-8.99h0C59.36,122.46,59.89,123.11,60.94,123.6z"/>
		</g>
	</g>
	<g>
		<path class="st2" d="M60.95,120.01c-2.12,0.98-2.13,2.6-0.01,3.59l63.25,29.77c2.12,1,5.58,1.01,7.7,0.03l62.15-28.75
			c2.12-0.98,2.13-2.6,0.01-3.6l-63.25-29.77c-2.12-1-5.58-1.01-7.7-0.03L60.95,120.01z"/>
	</g>
</g>
<g>
	<path class="st3" d="M187.07,56.89h-14.14V44.26c0-1.05-0.85-1.9-1.9-1.9h-35.17c-1.05,0-1.9,0.85-1.9,1.9v12.63h-12.69V44.26
		c0-1.05-0.85-1.9-1.9-1.9H84.2c-1.05,0-1.9,0.85-1.9,1.9c0,0,0,5.81,0,12.63H68.16c-0.35,0-0.64-0.29-0.64-0.64V42.36h-8.8v13.89
		c0,5.2,4.23,9.45,9.45,9.45H82.3c0,6.64,0,12.31,0,12.62c0,1.06,0.85,1.9,1.9,1.9h35.17c1.05,0,1.9-0.85,1.9-1.9V65.7h12.69v12.62
		c0,1.06,0.85,1.9,1.9,1.9h35.17c1.05,0,1.9-0.85,1.9-1.9V65.7h14.14c0.35,0,0.64,0.28,0.64,0.63v40.48c0,0.35-0.29,0.63-0.64,0.63
		h-14.14V94.82c0-1.06-0.85-1.9-1.9-1.9h-35.17c-1.05,0-1.9,0.85-1.9,1.9v12.62h-12.69V94.82c0-1.06-0.85-1.9-1.9-1.9H84.2
		c-1.05,0-1.9,0.85-1.9,1.9c0,0,0,5.81,0,12.62H68.16c-5.21,0-9.45,4.23-9.45,9.45v13.89h8.8v-13.89c0-0.35,0.29-0.64,0.64-0.64
		H82.3c0,6.63,0,12.32,0,12.63c0,1.05,0.85,1.9,1.9,1.9h35.17c1.05,0,1.9-0.85,1.9-1.9v-12.63h12.69v12.63c0,1.05,0.85,1.9,1.9,1.9
		h35.17c1.05,0,1.9-0.85,1.9-1.9v-12.63h14.14c5.21,0,9.45-4.23,9.45-9.44V66.33C196.52,61.13,192.28,56.89,187.07,56.89z"/>
	<g>
		<path class="st1" d="M67.52,56.25V42.36h-8.8v13.89c0,5.2,4.23,9.45,9.45,9.45h12.31v-8.8H68.16
			C67.81,56.89,67.52,56.6,67.52,56.25z"/>
		<path class="st1" d="M58.72,116.89v13.89h8.8v-13.89c0-0.35,0.29-0.64,0.64-0.64h12.31v-8.8H68.16
			C62.95,107.45,58.72,111.68,58.72,116.89z"/>
		<path class="st1" d="M187.07,56.89h-14.14V44.26c0-1.05-0.85-1.9-1.9-1.9h-35.17c-1.05,0-1.9,0.85-1.9,1.9v12.63h-12.69V44.26
			c0-1.05-0.85-1.9-1.9-1.9H84.2c-1.05,0-1.9,0.85-1.9,1.9c0,0,0,33.3,0,34.06c0,1.06,0.85,1.9,1.9,1.9h35.17
			c1.05,0,1.9-0.85,1.9-1.9V65.7h12.69v12.62c0,1.06,0.85,1.9,1.9,1.9h35.17c1.05,0,1.9-0.85,1.9-1.9V65.7h14.14
			c0.35,0,0.64,0.28,0.64,0.63v40.48c0,0.35-0.29,0.63-0.64,0.63h-14.14V94.82c0-1.06-0.85-1.9-1.9-1.9h-35.17
			c-1.05,0-1.9,0.85-1.9,1.9v12.62h-12.69V94.82c0-1.06-0.85-1.9-1.9-1.9H84.2c-1.05,0-1.9,0.85-1.9,1.9c0,0,0,33.28,0,34.06
			c0,1.05,0.85,1.9,1.9,1.9h35.17c1.05,0,1.9-0.85,1.9-1.9v-12.63h12.69v12.63c0,1.05,0.85,1.9,1.9,1.9h35.17
			c1.05,0,1.9-0.85,1.9-1.9v-12.63h14.14c5.21,0,9.45-4.23,9.45-9.44V66.33C196.52,61.13,192.28,56.89,187.07,56.89z M101.7,59.84
			c-6.63-0.02-11.87-0.77-13.96-1.32c1.98-0.53,7.07-1.32,13.96-1.32c6.58,0,11.69,0.73,13.97,1.32
			C111.89,59.51,105.73,59.84,101.7,59.84z M115.68,64.43c-6.57,0.39-9.3,0.42-13.97,0.44c-7.73-0.04-9.9-0.19-13.96-0.44
			c4.69-0.38,10.73-0.42,13.96-0.44C105.66,64.01,111.34,64.08,115.68,64.43z M153.65,63.99c1.35,0.01,8.86,0.02,14.26,0.44
			c-6.62,0.39-9.42,0.42-14.26,0.44c-6.05-0.03-8.4-0.09-14.26-0.44C144.15,64.05,150.53,64.01,153.65,63.99z M139.38,58.52
			c3.73-0.97,9.95-1.32,14.06-1.32c6.59,0,11.85,0.75,14.07,1.32c-2.54,0.66-8.11,1.32-14.07,1.32
			C146.79,59.83,141.57,59.09,139.38,58.52z M101.79,110.4c-4.12-0.01-10.41-0.37-14.07-1.32c2.25-0.58,7.39-1.32,14.07-1.32
			c4.17,0,10.38,0.34,14.06,1.32C112.21,110.05,105.89,110.39,101.79,110.4z M115.85,114.98c-4.69,0.38-11.22,0.43-14.06,0.44
			c-3.99-0.02-9.77-0.1-14.07-0.44c7.26-0.44,11.77-0.42,14.07-0.44C106.67,114.59,109.26,114.58,115.85,114.98z M153.44,110.4
			c-6.78-0.02-11.95-0.77-14.06-1.32c3.64-0.95,9.75-1.32,14.06-1.32c6.68,0,11.83,0.74,14.07,1.32
			C164.91,109.76,159.42,110.39,153.44,110.4z M167.51,114.98c-5.24,0.42-12.65,0.43-14.07,0.44c-3.46-0.02-9.21-0.05-14.06-0.44
			c6.96-0.42,7.74-0.38,14.06-0.44C155.9,114.57,160.34,114.55,167.51,114.98z"/>
	</g>
</g>
</svg>
