<?xml version="1.0" encoding="utf-8"?>
<!-- Generator: Adobe Illustrator 23.1.1, SVG Export Plug-In . SVG Version: 6.00 Build 0)  -->
<svg version="1.1" id="Layer_1" xmlns="http://www.w3.org/2000/svg" xmlns:xlink="http://www.w3.org/1999/xlink" x="0px" y="0px"
	 viewBox="0 0 259 211.01" style="enable-background:new 0 0 259 211.01;" xml:space="preserve">
<style type="text/css">
	.st0{fill:#A8CEDE;}
	.st1{fill:#6897B8;}
	.st2{fill:#8CBDD2;}
	.st3{fill:#FFFFFF;}
	.st4{fill:#7197B8;}
</style>
<g>
	<g>
		<path class="st0" d="M25.41,134.43c-3.35,1.55-3.36,4.1-0.02,5.67l99.78,46.96c3.34,1.57,8.81,1.59,12.16,0.04l98.05-45.35
			c3.35-1.55,3.36-4.1,0.02-5.67l-99.78-46.96c-3.34-1.57-8.81-1.59-12.16-0.04L25.41,134.43z"/>
	</g>
	<g>
		<g>
			<g>
				<path class="st1" d="M63.84,132.62l63.25,29.77c2.12,1,5.58,1.01,7.71,0.03l62.16-28.75c1.05-0.49,1.59-1.13,1.59-1.78h0v9
					c0,0,0,0,0,0c-0.01,0.65-0.54,1.29-1.59,1.78l-62.16,28.75c-2.12,0.98-5.59,0.97-7.71-0.03l-63.25-29.77
					c-1.04-0.49-1.55-1.12-1.57-1.76c0,0-0.01,0-0.01-0.01v-0.04v0v-8.99h0C62.26,131.47,62.78,132.12,63.84,132.62z"/>
			</g>
		</g>
		<g>
			<path class="st2" d="M63.85,129.03c-2.12,0.98-2.13,2.6-0.01,3.59l63.25,29.77c2.12,1,5.58,1.01,7.71,0.03l62.16-28.75
				c2.12-0.98,2.13-2.6,0.01-3.6l-63.25-29.77c-2.12-1-5.58-1.01-7.71-0.03L63.85,129.03z"/>
		</g>
	</g>
</g>
<g>
	<g>
		<path class="st3" d="M179.05,118.52h-16.48v-12.58c5.44-1.17,10.16-3.78,13.92-7.28c1.6-1.48,2.51-3.57,2.51-5.75V50
			c0-2.18-0.91-4.27-2.51-5.77c-2.63-2.44-5.7-4.41-9.07-5.79c-3.49-1.42-7.31-2.21-11.31-2.21c-4.02,0-7.85,0.79-11.33,2.21
			c-3.37,1.37-6.44,3.35-9.07,5.79c-1.6,1.49-2.51,3.59-2.51,5.77v42.9c0,2.18,0.91,4.27,2.51,5.75c3.76,3.49,8.45,6.09,13.94,7.28
			v12.58h-37.22v-12.58c1.68-0.36,3.31-0.86,4.86-1.48c3.37-1.39,6.44-3.37,9.07-5.8c1.6-1.48,2.51-3.57,2.51-5.75V50
			c0-2.18-0.91-4.27-2.51-5.77c-5.36-4.96-12.53-8-20.38-8c-7.79,0-14.99,2.99-20.4,8c-1.6,1.49-2.51,3.59-2.51,5.77v42.9
			c0,2.18,0.91,4.27,2.51,5.75c2.63,2.44,5.7,4.41,9.07,5.8c1.55,0.62,3.19,1.12,4.88,1.48v12.58H86.04c0,0-14.42,16.74-11.57,16.74
			h116.17L179.05,118.52z"/>
		<path class="st3" d="M151.03,92.58L151.03,92.58C151.03,92.58,151.03,92.59,151.03,92.58z"/>
	</g>
	<g>
		<path class="st4" d="M179.05,118.52h-16.48v-12.58c5.44-1.17,10.16-3.78,13.92-7.28c1.6-1.48,2.51-3.57,2.51-5.75V50
			c0-2.18-0.91-4.27-2.51-5.77c-2.63-2.44-5.7-4.41-9.07-5.79c-3.49-1.42-7.31-2.21-11.31-2.21c-4.02,0-7.85,0.79-11.33,2.21
			c-3.37,1.37-6.44,3.35-9.07,5.79c-1.6,1.49-2.51,3.59-2.51,5.77v42.9c0,2.18,0.91,4.27,2.51,5.75c3.76,3.49,8.45,6.09,13.94,7.28
			v12.58h-37.22v-12.58c1.68-0.36,3.31-0.86,4.86-1.48c3.37-1.39,6.44-3.37,9.07-5.8c1.6-1.48,2.51-3.57,2.51-5.75V50
			c0-2.18-0.91-4.27-2.51-5.77c-5.36-4.96-12.53-8-20.38-8c-7.79,0-14.99,2.99-20.4,8c-1.6,1.49-2.51,3.59-2.51,5.77v42.9
			c0,2.18,0.91,4.27,2.51,5.75c2.63,2.44,5.7,4.41,9.07,5.8c1.55,0.62,3.19,1.12,4.88,1.48v12.58H86.04c0,0-14.42,16.74-11.57,16.74
			h116.17L179.05,118.52z M100.97,92.63c2.27,2.27,4.96,4.48,7.81,6.23c-5.73-0.38-9.29-2.58-10.75-4.33
			c-0.33-0.45-0.5-0.94-0.53-1.48c-0.03-0.91-0.02-42.72,0-43.21c0.02-0.57,0.22-1.08,0.53-1.49c2.61-3.16,7.04-3.85,10.75-4.34
			c-2.64,1.84-3.49,1.92-7.86,6.3V92.6C100.94,92.61,100.96,92.61,100.97,92.63z M151.1,92.63c1.44,1.53,5.05,4.53,7.81,6.23
			c-3.76-0.24-8.14-1.18-10.75-4.31c-0.34-0.45-0.52-0.94-0.55-1.49V49.81c0.03-0.55,0.24-1.06,0.55-1.48
			c2.78-3.23,6.73-3.79,10.75-4.33c-3.66,2.25-5.61,4.03-7.86,6.3c0,39.71-0.02,42.15-0.02,42.27L151.1,92.63z"/>
		<path class="st4" d="M151.03,92.58L151.03,92.58C151.03,92.58,151.03,92.59,151.03,92.58z"/>
	</g>
</g>
</svg>
