<?xml version="1.0" encoding="utf-8"?>
<!-- Generator: Adobe Illustrator 23.1.1, SVG Export Plug-In . SVG Version: 6.00 Build 0)  -->
<svg version="1.1" id="Layer_1" xmlns="http://www.w3.org/2000/svg" xmlns:xlink="http://www.w3.org/1999/xlink" x="0px" y="0px"
	 viewBox="0 0 259 211.01" style="enable-background:new 0 0 259 211.01;" xml:space="preserve">
<style type="text/css">
	.st0{fill:#A96E81;}
	.st1{fill:#7C223E;}
	.st2{fill:#954C63;}
	.st3{fill:#FFFFFF;}
</style>
<g>
	<g>
		<path class="st0" d="M23.48,132.04c-3.35,1.55-3.36,4.1-0.02,5.67l99.77,46.96c3.34,1.57,8.81,1.59,12.16,0.04l98.05-45.35
			c3.35-1.55,3.36-4.1,0.02-5.67l-99.78-46.96c-3.34-1.57-8.81-1.59-12.16-0.04L23.48,132.04z"/>
	</g>
	<g>
		<g>
			<g>
				<path class="st1" d="M61.91,130.23L125.16,160c2.12,1,5.58,1.01,7.71,0.03l62.15-28.75c1.05-0.49,1.59-1.13,1.59-1.78h0v9
					c0,0,0,0,0,0c-0.01,0.65-0.54,1.29-1.59,1.78l-62.15,28.75c-2.12,0.98-5.59,0.97-7.71-0.03l-63.25-29.77
					c-1.04-0.49-1.55-1.12-1.57-1.76c0,0-0.01,0-0.01-0.01v-0.04v0v-8.99h0C60.33,129.08,60.85,129.73,61.91,130.23z"/>
			</g>
		</g>
		<g>
			<path class="st2" d="M61.92,126.64c-2.12,0.98-2.13,2.6-0.01,3.59L125.16,160c2.12,1,5.58,1.01,7.71,0.03l62.15-28.75
				c2.12-0.98,2.13-2.6,0.01-3.6l-63.25-29.77c-2.12-1-5.58-1.01-7.71-0.03L61.92,126.64z"/>
		</g>
	</g>
</g>
<g>
	<g>
		<path class="st3" d="M158.41,36.78h-56.47c-2,0-3.63,1.62-3.63,3.62s1.63,3.63,3.63,3.63h12.6l8.63,8.63h0.01v3h-2.43
			c-1.07,0-1.94,0.87-1.94,1.94v10.73h-10.53c-2.67,0-4.84,2.17-4.84,4.85V94.5c4.82-9.9,15-16.74,26.74-16.74
			c11.73,0,21.89,6.83,26.73,16.72v-21.3c0-2.68-2.17-4.85-4.84-4.85h-10.53V57.6c0-1.07-0.87-1.94-1.94-1.94h-2.46v-3h0.04
			l8.63-8.63h12.6c2,0,3.63-1.63,3.63-3.63S160.41,36.78,158.41,36.78z"/>
		<path class="st3" d="M130.18,80.76c-14.75,0-26.74,12-26.74,26.74c0,7.14,2.81,13.87,7.85,18.91c0.09-0.35,0.19-0.69,0.28-1.03
			c0.79,0.82,1.63,1.59,2.52,2.3c-0.34,1.45-0.61,2.89-0.76,4.33c-1.67,15.29,9.13,22.26,18.13,20.62
			c8.56-1.56,15-10.67,11.36-21.57c-0.08-0.24-0.17-0.47-0.26-0.7c0.9-0.47,1.76-1,2.59-1.57c0.09,0.22,0.18,0.43,0.26,0.66
			c7.37-5.13,11.48-13.37,11.48-21.94C156.91,92.76,144.92,80.76,130.18,80.76z"/>
	</g>
	<g>
		<path class="st1" d="M156.91,73.18c0-2.68-2.17-4.85-4.84-4.85h-10.53V57.6c0-1.07-0.87-1.94-1.94-1.94h-18.85
			c-1.07,0-1.94,0.87-1.94,1.94v10.73h-10.53c-2.67,0-4.84,2.17-4.84,4.85V94.5c4.82-9.9,15-16.74,26.74-16.74
			c11.73,0,21.89,6.83,26.73,16.72V73.18z M135.88,68.33h-11.41v-7.01h11.41V68.33z"/>
		<path class="st1" d="M101.94,44.03h12.6l8.63,8.63h14.01l8.63-8.63h12.6c2,0,3.63-1.63,3.63-3.63s-1.63-3.62-3.63-3.62h-56.47
			c-2,0-3.63,1.62-3.63,3.62S99.94,44.03,101.94,44.03z"/>
		<path class="st1" d="M156.91,107.5c0-14.74-11.99-26.74-26.73-26.74c-14.75,0-26.74,12-26.74,26.74c0,7.14,2.81,13.87,7.85,18.91
			c0.74-2.98,1.8-5.91,3.06-8.71c-1.91-2.96-3-6.45-3-10.2c0-10.4,8.43-18.83,18.82-18.83c10.4,0,18.83,8.43,18.83,18.83
			c0,5.91-2.73,11.26-7.13,14.75c1.31,2.18,2.61,4.55,3.56,7.19C152.8,124.31,156.91,116.07,156.91,107.5z"/>
		<path class="st1" d="M142.83,131.05c-2.31-6.83-6.56-10.65-9.06-17.73c-1.87-5.55-2.37-11.74-2.48-15.66
			c-8.06,9.15-16.65,22.2-17.95,34.34c-1.67,15.29,9.13,22.26,18.13,20.62C140.03,151.06,146.46,141.95,142.83,131.05z"/>
	</g>
</g>
</svg>
