<?xml version="1.0" encoding="utf-8"?>
<!-- Generator: Adobe Illustrator 23.1.1, SVG Export Plug-In . SVG Version: 6.00 Build 0)  -->
<svg version="1.1" id="Layer_1" xmlns="http://www.w3.org/2000/svg" xmlns:xlink="http://www.w3.org/1999/xlink" x="0px" y="0px"
	 viewBox="0 0 259 211.01" style="enable-background:new 0 0 259 211.01;" xml:space="preserve">
<style type="text/css">
	.st0{fill:#EFBB2D;}
	.st1{fill:#B0891C;}
	.st2{fill-rule:evenodd;clip-rule:evenodd;fill:#B0891C;}
</style>
<g>
	<g>
		<path class="st0" d="M30.18,118.34c-3.35,1.55-3.36,4.11-0.02,5.68l99.93,47.04c3.35,1.57,8.82,1.59,12.18,0.04l98.21-45.42
			c3.35-1.55,3.36-4.1,0.02-5.68l-99.94-47.04c-3.34-1.57-8.82-1.59-12.18-0.04L30.18,118.34z"/>
	</g>
	<g>
		<g>
			<g>
				<path class="st1" d="M68.67,116.52l63.35,29.82c2.12,1,5.59,1.01,7.72,0.03l62.25-28.79c1.06-0.49,1.59-1.14,1.59-1.79h0v9.01
					c0,0,0,0,0,0c-0.01,0.65-0.54,1.3-1.6,1.79l-62.25,28.79c-2.13,0.98-5.6,0.97-7.72-0.03l-63.35-29.82
					c-1.04-0.49-1.56-1.12-1.58-1.76c0,0-0.01,0-0.01-0.01v-0.04v0v-9.01h0C67.08,115.37,67.61,116.03,68.67,116.52z"/>
			</g>
		</g>
		<g>
			<path class="st0" d="M68.68,112.92c-2.13,0.98-2.13,2.6-0.01,3.6l63.35,29.82c2.12,1,5.59,1.01,7.72,0.03l62.25-28.79
				c2.12-0.98,2.13-2.6,0.01-3.6l-63.35-29.81c-2.12-1-5.59-1.01-7.72-0.03L68.68,112.92z"/>
		</g>
	</g>
</g>
<g>
	<path class="st2" d="M170.59,54.49V43.55c0-1.42-1.15-2.58-2.57-2.58h-14.91l-7.13-7.13h-18.45l-7.14,7.13h-14.91
		c-1.42,0-2.57,1.16-2.57,2.58v10.94c-8.61,10.05-12.11,21.7-11.11,33.71c1.7,20.47,17.12,36.84,36.65,40.48
		c-0.2-1.4-3.05-20.42-4.22-33.51c-0.01-0.04-0.01-0.07-0.01-0.07c3.07,13.17,6.5,33.77,6.79,35.15c0.75,3,3.08,4.52,5.74,4.52
		c2.98,0,5.17-1.93,5.74-4.5c0.31-1.56,3.72-22.02,6.79-35.16c0,0,0,0.03-0.01,0.07c0,0.02,0,0.04-0.01,0.08
		c-1.16,12.79-3.79,30.38-4.21,33.44c21.09-3.83,36.81-22.32,36.81-44.37C181.86,73.6,178.05,62.96,170.59,54.49 M136.76,49.2
		c2.94,0,5.24,2.39,5.24,5.24c0,2.9-2.34,5.25-5.24,5.25c-2.9,0-5.25-2.35-5.25-5.25C131.51,51.59,133.81,49.2,136.76,49.2
		 M149.83,56.03c-0.15,0.83-0.62,3.82-1.23,6.56c-0.55-2.41-1.09-5.72-1.23-6.56c-0.06-0.28-0.06-0.58-0.03-0.88
		c0.02-0.29,0.02-0.63,0-0.9c0-4.3-3.12-10-10.59-10.42c-0.01,0-0.01,0.01-0.01,0.01c-5.47,0-10.21,4.14-10.57,10.45
		c0,0.26-0.02,0.28,0.01,0.86c0.03,0.3,0.03,0.59-0.02,0.88c-0.36,2.08-0.74,4.44-1.25,6.56c-0.53-2.21-1.1-5.72-1.24-6.56
		c-0.05-0.28-0.04-0.58-0.03-0.88c0.02-0.33,0.03-0.65,0.03-0.98c0.52-7.78,5.96-12.59,13.14-12.83c8.65,0.46,13.02,7.1,13.02,12.86
		c0.02,0.36,0,0.63,0.02,0.95C149.89,55.46,149.89,55.75,149.83,56.03"/>
	<rect x="91.23" y="41.29" class="st2" width="7.9" height="8.2"/>
	<rect x="174.14" y="41.29" class="st2" width="7.9" height="8.2"/>
	<path class="st2" d="M162.3,124.09c0.71,2.43,3.13,3.31,5.07,3.31c2.07,0,4.67-0.99,5.18-3.79l1.59-8.52
		C170.96,118.59,166.91,121.71,162.3,124.09"/>
	<path class="st2" d="M99.12,115.1l1.59,8.52c0.52,2.79,3.12,3.78,5.18,3.78c1.94,0,4.37-0.88,5.07-3.32
		C106.41,121.73,102.39,118.68,99.12,115.1"/>
</g>
</svg>
