<?xml version="1.0" encoding="utf-8"?>
<!-- Generator: Adobe Illustrator 23.1.1, SVG Export Plug-In . SVG Version: 6.00 Build 0)  -->
<svg version="1.1" id="Layer_1" xmlns="http://www.w3.org/2000/svg" xmlns:xlink="http://www.w3.org/1999/xlink" x="0px" y="0px"
	 viewBox="0 0 259 211.01" style="enable-background:new 0 0 259 211.01;" xml:space="preserve">
<style type="text/css">
	.st0{fill:#A8A4D8;}
	.st1{fill:#5F5E9A;}
	.st2{fill:#8D87D6;}
	.st3{fill:#FFFFFF;}
	.st4{fill-rule:evenodd;clip-rule:evenodd;fill:#8D87D6;}
</style>
<g>
	<g>
		<path class="st0" d="M28.85,131.92c-3.36,1.55-3.37,4.11-0.02,5.69l100.04,47.08c3.35,1.58,8.83,1.6,12.19,0.04l98.31-45.47
			c3.36-1.55,3.36-4.11,0.02-5.68L139.34,86.49c-3.35-1.57-8.83-1.59-12.19-0.04L28.85,131.92z"/>
	</g>
	<g>
		<g>
			<g>
				<path class="st1" d="M67.37,130.1l63.41,29.85c2.12,1,5.6,1.01,7.73,0.03l62.32-28.82c1.06-0.49,1.59-1.14,1.6-1.79h0v9.02
					c0,0,0,0,0,0c-0.01,0.65-0.54,1.3-1.6,1.79L138.51,169c-2.13,0.98-5.6,0.97-7.73-0.03l-63.41-29.85
					c-1.04-0.49-1.56-1.13-1.58-1.76c0,0-0.01,0-0.01-0.01v-0.04v0v-9.02h0C65.79,128.95,66.32,129.6,67.37,130.1z"/>
			</g>
		</g>
		<g>
			<path class="st2" d="M67.38,126.5c-2.13,0.98-2.13,2.61-0.01,3.6l63.41,29.85c2.12,1,5.6,1.01,7.73,0.03l62.32-28.82
				c2.13-0.98,2.13-2.61,0.01-3.61L137.43,97.7c-2.12-1-5.6-1.01-7.73-0.03L67.38,126.5z"/>
		</g>
	</g>
</g>
<g>
	<path class="st3" d="M76.75,132.23h76.41h36.33c1.46,0,2.64-1.33,2.64-2.97V70.85c0-1.53-0.79-2.94-2.03-3.59l-40.85-21.41v-6.8
		c0-1.64-1.18-2.97-2.64-2.97h-24.34c-1.46,0-2.64,1.33-2.64,2.97v6.8L78.78,67.26c-1.24,0.64-2.03,2.05-2.03,3.58V132.23z"/>
	<path class="st4" d="M76.74,132.37h76.41h36.33c1.46,0,2.64-1.33,2.64-2.97V70.98c0-1.53-0.79-2.94-2.03-3.59l-40.85-21.41v-6.8
		c0-1.64-1.18-2.97-2.64-2.97h-24.34c-1.46,0-2.64,1.33-2.64,2.97v6.8L78.78,67.4c-1.24,0.64-2.03,2.05-2.03,3.58V132.37z
		 M82.15,72.34l42.88-22.48V42.3h18.79v7.56l42.89,22.48v53.95h-49.67v-12.41h28.48c2.23,0,4.37-0.99,5.93-2.76l4.02-4.52h8.6V74.23
		l-42.89-22.48v-6.48h-4.15V94.9h9.43v12.05c0.18,0,14.81,0,14.98,0.01c1.53,0.16,3.55,0.33,8.78,0.98c-4,0.53-7.86,0.89-8.78,0.99
		c-0.02,0-53.91,0.01-54.05-0.01c-1.74-0.18-3.54-0.33-8.77-0.98c3.96-0.46,1.41-0.21,8.77-0.97c0.26-0.03,14.71-0.02,14.98-0.02
		V94.9h9.44V45.27h-4.15v6.48L84.8,74.23v32.37h8.59l4.02,4.52c1.58,1.77,3.71,2.76,5.93,2.76h28.49v12.41H82.15V72.34z"/>
</g>
</svg>
