<?xml version="1.0" encoding="utf-8"?>
<!-- Generator: Adobe Illustrator 23.1.1, SVG Export Plug-In . SVG Version: 6.00 Build 0)  -->
<svg version="1.1" id="Layer_1" xmlns="http://www.w3.org/2000/svg" xmlns:xlink="http://www.w3.org/1999/xlink" x="0px" y="0px"
	 viewBox="0 0 259 211.01" style="enable-background:new 0 0 259 211.01;" xml:space="preserve">
<style type="text/css">
	.st0{fill:#B67DC2;}
	.st1{fill:#540072;}
	.st2{fill:#700087;}
	.st3{fill:#FFFFFF;}
</style>
<g>
	<path class="st0" d="M30.52,143.96c-3.35,1.55-3.36,4.1-0.02,5.67l99.78,46.96c3.34,1.57,8.81,1.59,12.16,0.04l98.05-45.35
		c3.35-1.55,3.36-4.1,0.02-5.67l-99.78-46.96c-3.34-1.57-8.81-1.59-12.16-0.04L30.52,143.96z"/>
</g>
<g>
	<g>
		<g>
			<path class="st1" d="M68.94,142.14l63.25,29.77c2.12,1,5.58,1.01,7.71,0.03l62.15-28.75c1.05-0.49,1.59-1.13,1.59-1.78h0v9
				c0,0,0,0,0,0c-0.01,0.65-0.54,1.29-1.59,1.78l-62.15,28.75c-2.12,0.98-5.59,0.97-7.71-0.03l-63.25-29.77
				c-1.04-0.49-1.55-1.12-1.57-1.76c0,0-0.01,0-0.01-0.01v-0.04v0v-8.99h0C67.36,141,67.89,141.65,68.94,142.14z"/>
		</g>
	</g>
	<g>
		<path class="st2" d="M68.95,138.55c-2.12,0.98-2.13,2.6-0.01,3.59l63.25,29.77c2.12,1,5.58,1.01,7.71,0.03l62.15-28.75
			c2.12-0.98,2.13-2.6,0.01-3.6l-63.25-29.77c-2.12-1-5.58-1.01-7.71-0.03L68.95,138.55z"/>
	</g>
</g>
<g>
	<path class="st3" d="M171.4,74.74l-26.16-4.49C144,46.1,125.78,26.63,101.8,23.89c-0.6-0.07-1.22,0.12-1.67,0.53
		c-0.46,0.41-0.72,0.99-0.72,1.61l0.04,12.82c0,1.05,0.77,1.94,1.82,2.11c4.9,0.77,9.64,2.71,13.7,5.6
		c7.87,5.61,12.78,14.25,13.52,23.76l-25.63,4.42c-1.03,0.18-1.78,1.07-1.78,2.11v31.17c0,0.37-0.36,36.71-0.39,43.64
		c0,0.58,0.22,1.12,0.62,1.52c0.4,0.41,0.94,0.63,1.52,0.63c7.44,0,59.37,0,68.22,0c1.18,0,2.14-0.96,2.14-2.15V76.86
		C173.18,75.81,172.43,74.92,171.4,74.74z"/>
	<path class="st2" d="M171.4,74.74l-26.16-4.49C144,46.1,125.78,26.63,101.8,23.89c-0.6-0.07-1.22,0.12-1.67,0.53
		c-0.46,0.41-0.72,0.99-0.72,1.61l0.04,12.82c0,1.05,0.77,1.94,1.82,2.11c4.9,0.77,9.64,2.71,13.7,5.6
		c7.87,5.61,12.78,14.25,13.52,23.76l-25.63,4.42c-1.03,0.18-1.78,1.07-1.78,2.11v31.17c0,0.37-0.36,36.71-0.39,43.64
		c0,0.58,0.22,1.12,0.62,1.52c0.4,0.41,0.94,0.63,1.52,0.63c7.44,0,59.37,0,68.22,0c1.18,0,2.14-0.96,2.14-2.15V76.86
		C173.18,75.81,172.43,74.92,171.4,74.74z M166.39,148.42h-58.79v-2.58h58.79V148.42z M166.39,142.43h-58.79v-2.58h58.79V142.43z
		 M166.39,136.43h-58.79v-2.58h58.79V136.43z M166.39,130.43h-58.79v-2.58h58.79V130.43z M166.39,124.43h-58.79v-2.58h58.79V124.43z
		 M166.39,118.44h-58.79v-2.58h58.79V118.44z M166.39,112.44h-58.79v-2.58h58.79V112.44z M166.39,106.44h-58.79v-2.58h58.79V106.44z
		 M166.39,100.45h-58.79v-2.58h58.79V100.45z M166.39,94.45h-58.79v-2.58h58.79V94.45z M166.39,88.45h-58.79v-2.58h58.79V88.45z
		 M166.39,82.45h-58.79v-2.58h58.79V82.45z"/>
</g>
</svg>
